<svg width="206" height="43" viewBox="0 0 206 43" fill="none" xmlns="http://www.w3.org/2000/svg">
<path d="M4.57581 28.075H14.0084V31.7678H0V3.87135H4.57581V28.075ZM20.1631 6.72128C19.3335 6.72128 18.6378 6.44029 18.076 5.87832C17.514 5.31634 17.233 4.62061 17.233 3.79112C17.233 2.96163 17.514 2.2659 18.076 1.70392C18.6378 1.14194 19.3335 0.860992 20.1631 0.860992C20.9659 0.860992 21.6482 1.14194 22.2102 1.70392C22.7721 2.2659 23.0531 2.96163 23.0531 3.79112C23.0531 4.62061 22.7721 5.31634 22.2102 5.87832C21.6482 6.44029 20.9659 6.72128 20.1631 6.72128ZM22.4109 9.65132V31.7678H17.835V9.65132H22.4109ZM36.9681 27.6736L43.2296 9.65132H48.0864L39.6574 31.7678H34.1985L25.8095 9.65132H30.7065L36.9681 27.6736ZM71.8154 20.1677C71.8154 20.9973 71.7619 21.7465 71.6548 22.4154H54.7564C54.8902 24.1816 55.5458 25.5998 56.7231 26.6702C57.9006 27.7405 59.3456 28.2758 61.0581 28.2758C63.52 28.2758 65.2594 27.2455 66.2763 25.185H71.2133C70.5444 27.2187 69.3268 28.8912 67.5607 30.2024C65.8213 31.4868 63.6538 32.129 61.0581 32.129C58.9442 32.129 57.0443 31.6607 55.3585 30.7242C53.6994 29.7608 52.3882 28.4229 51.4249 26.7104C50.4884 24.9709 50.0201 22.9641 50.0201 20.6895C50.0201 18.415 50.4749 16.4214 51.3847 14.7089C52.3213 12.9695 53.6192 11.6316 55.2781 10.6949C56.9641 9.75838 58.8907 9.2901 61.0581 9.2901C63.1455 9.2901 65.0052 9.74503 66.6375 10.6549C68.2697 11.5646 69.5408 12.8491 70.4506 14.5081C71.3605 16.1405 71.8154 18.0269 71.8154 20.1677ZM67.0389 18.7227C67.012 17.0369 66.41 15.6856 65.2327 14.6687C64.0552 13.6519 62.5968 13.1435 60.8575 13.1435C59.2787 13.1435 57.9273 13.6519 56.8035 14.6687C55.6795 15.6588 55.0106 17.0102 54.7965 18.7227H67.0389ZM84.3462 32.129C82.6069 32.129 81.0415 31.8213 79.65 31.2058C78.2852 30.5636 77.2014 29.7073 76.3987 28.637C75.5959 27.5399 75.1678 26.3223 75.1142 24.9844H79.8506C79.9308 25.9209 80.3724 26.7104 81.1752 27.3526C82.0047 27.968 83.035 28.2758 84.2658 28.2758C85.5504 28.2758 86.5404 28.0348 87.2362 27.5532C87.9586 27.0448 88.3199 26.4026 88.3199 25.6266C88.3199 24.797 87.9186 24.1816 87.1158 23.7802C86.3397 23.3788 85.0954 22.9373 83.3828 22.4556C81.7237 22.0007 80.3724 21.5591 79.3288 21.131C78.2852 20.7029 77.3754 20.0473 76.5994 19.1642C75.8502 18.2812 75.4755 17.1172 75.4755 15.6722C75.4755 14.4948 75.8233 13.4245 76.5191 12.4611C77.2148 11.471 78.205 10.6949 79.4894 10.1331C80.8006 9.57109 82.299 9.2901 83.985 9.2901C86.5003 9.2901 88.5206 9.93231 90.0458 11.2167C91.5979 12.4744 92.4275 14.2004 92.5345 16.3947H87.9586C87.8784 15.4046 87.477 14.6152 86.7546 14.0265C86.032 13.4378 85.0553 13.1435 83.8244 13.1435C82.6202 13.1435 81.697 13.3709 81.0548 13.8258C80.4126 14.2806 80.0914 14.8828 80.0914 15.6321C80.0914 16.2207 80.3055 16.7158 80.7336 17.1172C81.1619 17.5185 81.6837 17.8397 82.299 18.0805C82.9145 18.2946 83.8244 18.5756 85.0286 18.9234C86.634 19.3515 87.9453 19.7931 88.9622 20.248C90.0058 20.6761 90.9021 21.3183 91.6514 22.1746C92.4006 23.031 92.7887 24.1683 92.8154 25.5864C92.8154 26.8441 92.4675 27.968 91.7718 28.958C91.0761 29.9482 90.086 30.7242 88.8016 31.2862C87.5439 31.848 86.0587 32.129 84.3462 32.129ZM102.336 12.9027C103.112 11.8858 104.169 11.0294 105.506 10.3337C106.844 9.63797 108.356 9.2901 110.042 9.2901C111.969 9.2901 113.722 9.77173 115.3 10.7351C116.906 11.6716 118.164 12.9962 119.073 14.7089C119.983 16.4214 120.438 18.3883 120.438 20.6092C120.438 22.8302 119.983 24.8238 119.073 26.5898C118.164 28.3293 116.906 29.6939 115.3 30.684C113.722 31.6474 111.969 32.129 110.042 32.129C108.356 32.129 106.858 31.7945 105.547 31.1256C104.235 30.4299 103.165 29.5735 102.336 28.5566V42.2841H97.7597V9.65132H102.336V12.9027ZM115.782 20.6092C115.782 19.084 115.461 17.7728 114.819 16.6757C114.203 15.5517 113.374 14.7089 112.33 14.1469C111.313 13.5582 110.216 13.2639 109.039 13.2639C107.888 13.2639 106.791 13.5582 105.747 14.1469C104.731 14.7356 103.901 15.5919 103.259 16.7158C102.643 17.8397 102.336 19.1642 102.336 20.6895C102.336 22.2148 102.643 23.5528 103.259 24.7034C103.901 25.8272 104.731 26.6836 105.747 27.2722C106.791 27.8609 107.888 28.1554 109.039 28.1554C110.216 28.1554 111.313 27.8609 112.33 27.2722C113.374 26.6569 114.203 25.7737 114.819 24.6231C115.461 23.4724 115.782 22.1345 115.782 20.6092ZM123.438 20.6092C123.438 18.3883 123.893 16.4214 124.803 14.7089C125.739 12.9962 126.997 11.6716 128.576 10.7351C130.181 9.77173 131.948 9.2901 133.874 9.2901C135.614 9.2901 137.125 9.63797 138.41 10.3337C139.721 11.0027 140.765 11.8456 141.54 12.8625V9.65132H146.156V31.7678H141.54V28.4764C140.765 29.52 139.707 30.3897 138.37 31.0854C137.031 31.7811 135.506 32.129 133.794 32.129C131.894 32.129 130.154 31.6474 128.576 30.684C126.997 29.6939 125.739 28.3293 124.803 26.5898C123.893 24.8238 123.438 22.8302 123.438 20.6092ZM141.54 20.6895C141.54 19.1642 141.219 17.8397 140.578 16.7158C139.961 15.5919 139.145 14.7356 138.128 14.1469C137.112 13.5582 136.014 13.2639 134.837 13.2639C133.66 13.2639 132.563 13.5582 131.546 14.1469C130.529 14.7089 129.7 15.5517 129.057 16.6757C128.442 17.7728 128.134 19.084 128.134 20.6092C128.134 22.1345 128.442 23.4724 129.057 24.6231C129.7 25.7737 130.529 26.6569 131.546 27.2722C132.589 27.8609 133.687 28.1554 134.837 28.1554C136.014 28.1554 137.112 27.8609 138.128 27.2722C139.145 26.6836 139.961 25.8272 140.578 24.7034C141.219 23.5528 141.54 22.2148 141.54 20.6895ZM150.641 20.6895C150.641 18.415 151.096 16.4214 152.006 14.7089C152.943 12.9695 154.227 11.6316 155.859 10.6949C157.492 9.75838 159.365 9.2901 161.479 9.2901C164.154 9.2901 166.362 9.93231 168.101 11.2167C169.868 12.4744 171.059 14.2806 171.674 16.6355H166.737C166.335 15.5383 165.693 14.682 164.81 14.0667C163.927 13.4512 162.817 13.1435 161.479 13.1435C159.605 13.1435 158.107 13.8124 156.982 15.1504C155.886 16.4615 155.337 18.3079 155.337 20.6895C155.337 23.0711 155.886 24.9309 156.982 26.2688C158.107 27.6068 159.605 28.2758 161.479 28.2758C164.127 28.2758 165.881 27.1116 166.737 24.7836H171.674C171.032 27.0314 169.828 28.8243 168.062 30.1622C166.295 31.4735 164.102 32.129 161.479 32.129C159.365 32.129 157.492 31.6607 155.859 30.7242C154.227 29.7608 152.943 28.4229 152.006 26.7104C151.096 24.9709 150.641 22.9641 150.641 20.6895ZM196.504 20.1677C196.504 20.9973 196.451 21.7465 196.344 22.4154H179.445C179.578 24.1816 180.234 25.5998 181.411 26.6702C182.59 27.7405 184.034 28.2758 185.746 28.2758C188.208 28.2758 189.948 27.2455 190.964 25.185H195.902C195.232 27.2187 194.016 28.8912 192.249 30.2024C190.51 31.4868 188.343 32.129 185.746 32.129C183.633 32.129 181.734 31.6607 180.047 30.7242C178.388 29.7608 177.077 28.4229 176.114 26.7104C175.177 24.9709 174.708 22.9641 174.708 20.6895C174.708 18.415 175.164 16.4214 176.074 14.7089C177.01 12.9695 178.308 11.6316 179.967 10.6949C181.653 9.75838 183.58 9.2901 185.746 9.2901C187.834 9.2901 189.693 9.74503 191.326 10.6549C192.959 11.5646 194.23 12.8491 195.14 14.5081C196.049 16.1405 196.504 18.0269 196.504 20.1677ZM191.728 18.7227C191.701 17.0369 191.099 15.6856 189.921 14.6687C188.744 13.6519 187.285 13.1435 185.546 13.1435C183.967 13.1435 182.615 13.6519 181.492 14.6687C180.368 15.6588 179.699 17.0102 179.485 18.7227H191.728ZM202.853 32.0488C202.024 32.0488 201.328 31.7678 200.766 31.2058C200.204 30.644 199.923 29.9482 199.923 29.1186C199.923 28.2891 200.204 27.5934 200.766 27.0314C201.328 26.4694 202.024 26.1885 202.853 26.1885C203.656 26.1885 204.339 26.4694 204.901 27.0314C205.463 27.5934 205.744 28.2891 205.744 29.1186C205.744 29.9482 205.463 30.644 204.901 31.2058C204.339 31.7678 203.656 32.0488 202.853 32.0488Z" fill="url(#paint0_linear_1_86)"/>
<defs>
<linearGradient id="paint0_linear_1_86" x1="-3.01041" y1="-11.876" x2="211.841" y2="2.09286" gradientUnits="userSpaceOnUse">
<stop stop-color="#CD8AF6"/>
<stop offset="1" stop-color="#F7B3B5"/>
</linearGradient>
</defs>
</svg>
