<svg width="265" height="49" viewBox="0 0 265 49" fill="none" xmlns="http://www.w3.org/2000/svg">
<path d="M263.753 3.59087C263.753 5.31127 262.4 6.68174 260.761 6.68174C259.123 6.68174 257.77 5.31127 257.77 3.59087C257.77 1.87047 259.123 0.5 260.761 0.5C262.4 0.5 263.753 1.87047 263.753 3.59087Z" fill="white" stroke="white"/>
<path d="M247.197 23.4703L237.069 5.10963C236.936 4.86866 236.589 4.87165 236.46 5.11487L219.691 36.7894C219.568 37.0199 219.736 37.2975 219.997 37.2975H260.474C260.665 37.2975 260.82 37.1424 260.82 36.9513V16.3747" stroke="white" stroke-width="5" stroke-linecap="round"/>
<mask id="path-3-inside-1_1_530" fill="white">
<path d="M4.74189 34.2751H14.5168V38.1019H0V9.19286H4.74189V34.2751ZM20.895 12.1462C20.0353 12.1462 19.3143 11.8551 18.7321 11.2727C18.1497 10.6903 17.8585 9.96932 17.8585 9.10972C17.8585 8.25013 18.1497 7.52914 18.7321 6.94677C19.3143 6.36439 20.0353 6.07324 20.895 6.07324C21.7269 6.07324 22.434 6.36439 23.0163 6.94677C23.5987 7.52914 23.8899 8.25013 23.8899 9.10972C23.8899 9.96932 23.5987 10.6903 23.0163 11.2727C22.434 11.8551 21.7269 12.1462 20.895 12.1462ZM23.2244 15.1826V38.1019H18.4824V15.1826H23.2244ZM38.3099 33.8591L44.7987 15.1826H49.8318L41.0968 38.1019H35.4398L26.7463 15.1826H31.821L38.3099 33.8591ZM74.4221 26.0807C74.4221 26.9404 74.3666 27.7169 74.2557 28.4101H56.7438C56.8826 30.2403 57.5619 31.71 58.782 32.8193C60.0022 33.9284 61.4997 34.4831 63.2743 34.4831C65.8256 34.4831 67.6281 33.4155 68.6819 31.2802H73.7981C73.1049 33.3877 71.8432 35.1208 70.0129 36.4796C68.2104 37.8107 65.9642 38.4762 63.2743 38.4762C61.0837 38.4762 59.1148 37.9909 57.3679 37.0204C55.6485 36.0221 54.2897 34.6355 53.2915 32.8609C52.3209 31.0583 51.8357 28.9786 51.8357 26.6214C51.8357 24.2644 52.307 22.1984 53.2499 20.4237C54.2204 18.6213 55.5654 17.2348 57.2846 16.2641C59.0317 15.2936 61.0282 14.8083 63.2743 14.8083C65.4374 14.8083 67.3647 15.2797 69.0562 16.2226C70.7477 17.1653 72.0649 18.4965 73.0078 20.2157C73.9507 21.9074 74.4221 23.8623 74.4221 26.0807ZM69.4722 24.5833C69.4444 22.8363 68.8205 21.4359 67.6004 20.3821C66.3802 19.3284 64.8689 18.8015 63.0664 18.8015C61.4304 18.8015 60.0299 19.3284 58.8653 20.3821C57.7005 21.4081 57.0074 22.8086 56.7855 24.5833H69.4722ZM87.4077 38.4762C85.6052 38.4762 83.983 38.1573 82.541 37.5195C81.1267 36.854 80.0036 35.9666 79.1717 34.8574C78.3398 33.7205 77.8961 32.4588 77.8407 31.0723H82.7489C82.8321 32.0428 83.2897 32.8609 84.1216 33.5264C84.9812 34.1641 86.0489 34.4831 87.3244 34.4831C88.6556 34.4831 89.6816 34.2334 90.4026 33.7343C91.1512 33.2074 91.5257 32.5419 91.5257 31.7378C91.5257 30.878 91.1097 30.2403 90.2778 29.8244C89.4735 29.4084 88.1841 28.9508 86.4093 28.4517C84.69 27.9803 83.2897 27.5227 82.2082 27.079C81.1267 26.6354 80.1839 25.9559 79.3797 25.0409C78.6033 24.1258 78.215 22.9195 78.215 21.4221C78.215 20.2019 78.5755 19.0927 79.2965 18.0944C80.0174 17.0684 81.0436 16.2641 82.3746 15.6819C83.7335 15.0995 85.2862 14.8083 87.0334 14.8083C89.64 14.8083 91.7336 15.4738 93.3142 16.8049C94.9226 18.1082 95.7823 19.8968 95.8932 22.1707H91.1512C91.0681 21.1447 90.6521 20.3266 89.9035 19.7166C89.1547 19.1066 88.1425 18.8015 86.867 18.8015C85.6191 18.8015 84.6624 19.0372 83.9968 19.5087C83.3313 19.98 82.9985 20.604 82.9985 21.3805C82.9985 21.9905 83.2204 22.5036 83.664 22.9195C84.1078 23.3354 84.6485 23.6682 85.2862 23.9177C85.9241 24.1396 86.867 24.4308 88.1148 24.7913C89.7786 25.2349 91.1374 25.6925 92.1912 26.164C93.2727 26.6076 94.2016 27.2731 94.978 28.1605C95.7545 29.0479 96.1566 30.2265 96.1843 31.6961C96.1843 32.9995 95.8238 34.1641 95.1028 35.1901C94.3818 36.2163 93.3558 37.0204 92.0248 37.6028C90.7214 38.185 89.1824 38.4762 87.4077 38.4762ZM106.05 18.552C106.854 17.4982 107.95 16.6108 109.336 15.8898C110.723 15.1688 112.289 14.8083 114.036 14.8083C116.033 14.8083 117.849 15.3074 119.485 16.3057C121.149 17.2763 122.453 18.649 123.395 20.4237C124.338 22.1984 124.81 24.2367 124.81 26.5383C124.81 28.8399 124.338 30.9058 123.395 32.736C122.453 34.5386 121.149 35.9527 119.485 36.9788C117.849 37.9771 116.033 38.4762 114.036 38.4762C112.289 38.4762 110.736 38.1295 109.378 37.4364C108.019 36.7154 106.91 35.828 106.05 34.7742V48.9999H101.308V15.1826H106.05V18.552ZM119.985 26.5383C119.985 24.9577 119.652 23.5989 118.986 22.4619C118.348 21.2972 117.489 20.4237 116.407 19.8414C115.353 19.2313 114.217 18.9263 112.996 18.9263C111.804 18.9263 110.667 19.2313 109.586 19.8414C108.532 20.4514 107.672 21.3388 107.007 22.5036C106.369 23.6682 106.05 25.0409 106.05 26.6214C106.05 28.2021 106.369 29.5886 107.007 30.7811C107.672 31.9457 108.532 32.8331 109.586 33.4431C110.667 34.0532 111.804 34.3583 112.996 34.3583C114.217 34.3583 115.353 34.0532 116.407 33.4431C117.489 32.8054 118.348 31.8902 118.986 30.6978C119.652 29.5054 119.985 28.1189 119.985 26.5383ZM127.918 26.5383C127.918 24.2367 128.39 22.1984 129.332 20.4237C130.303 18.649 131.606 17.2763 133.242 16.3057C134.907 15.3074 136.737 14.8083 138.734 14.8083C140.536 14.8083 142.102 15.1688 143.433 15.8898C144.793 16.5831 145.874 17.4565 146.678 18.5103V15.1826H151.461V38.1019H146.678V34.691C145.874 35.7725 144.778 36.6737 143.392 37.3947C142.005 38.1157 140.424 38.4762 138.65 38.4762C136.681 38.4762 134.879 37.9771 133.242 36.9788C131.606 35.9527 130.303 34.5386 129.332 32.736C128.39 30.9058 127.918 28.8399 127.918 26.5383ZM146.678 26.6214C146.678 25.0409 146.345 23.6682 145.68 22.5036C145.042 21.3388 144.196 20.4514 143.142 19.8414C142.088 19.2313 140.951 18.9263 139.731 18.9263C138.511 18.9263 137.374 19.2313 136.321 19.8414C135.267 20.4237 134.408 21.2972 133.741 22.4619C133.104 23.5989 132.785 24.9577 132.785 26.5383C132.785 28.1189 133.104 29.5054 133.741 30.6978C134.408 31.8902 135.267 32.8054 136.321 33.4431C137.402 34.0532 138.539 34.3583 139.731 34.3583C140.951 34.3583 142.088 34.0532 143.142 33.4431C144.196 32.8331 145.042 31.9457 145.68 30.7811C146.345 29.5886 146.678 28.2021 146.678 26.6214ZM156.109 26.6214C156.109 24.2644 156.58 22.1984 157.523 20.4237C158.494 18.6213 159.824 17.2348 161.517 16.2641C163.209 15.2936 165.149 14.8083 167.34 14.8083C170.112 14.8083 172.4 15.4738 174.203 16.8049C176.033 18.1082 177.268 19.98 177.905 22.4203H172.789C172.373 21.2833 171.707 20.3959 170.792 19.7582C169.877 19.1204 168.726 18.8015 167.34 18.8015C165.398 18.8015 163.846 19.4947 162.68 20.8813C161.544 22.24 160.975 24.1535 160.975 26.6214C160.975 29.0895 161.544 31.0168 162.68 32.4033C163.846 33.7898 165.398 34.4831 167.34 34.4831C170.085 34.4831 171.902 33.2767 172.789 30.8642H177.905C177.24 33.1936 175.992 35.0515 174.162 36.438C172.331 37.7968 170.058 38.4762 167.34 38.4762C165.149 38.4762 163.209 37.9909 161.517 37.0204C159.824 36.0221 158.494 34.6355 157.523 32.8609C156.58 31.0583 156.109 28.9786 156.109 26.6214ZM203.637 26.0807C203.637 26.9404 203.581 27.7169 203.471 28.4101H185.958C186.097 30.2403 186.776 31.71 187.996 32.8193C189.217 33.9284 190.714 34.4831 192.488 34.4831C195.04 34.4831 196.842 33.4155 197.896 31.2802H203.013C202.319 33.3877 201.058 35.1208 199.227 36.4796C197.425 37.8107 195.179 38.4762 192.488 38.4762C190.299 38.4762 188.33 37.9909 186.582 37.0204C184.863 36.0221 183.504 34.6355 182.506 32.8609C181.535 31.0583 181.05 28.9786 181.05 26.6214C181.05 24.2644 181.522 22.1984 182.465 20.4237C183.435 18.6213 184.78 17.2348 186.5 16.2641C188.246 15.2936 190.243 14.8083 192.488 14.8083C194.651 14.8083 196.579 15.2797 198.271 16.2226C199.963 17.1653 201.28 18.4965 202.223 20.2157C203.165 21.9074 203.637 23.8623 203.637 26.0807ZM198.687 24.5833C198.659 22.8363 198.035 21.4359 196.814 20.3821C195.594 19.3284 194.083 18.8015 192.281 18.8015C190.645 18.8015 189.244 19.3284 188.08 20.3821C186.915 21.4081 186.222 22.8086 185.999 24.5833H198.687ZM210.216 38.3931C209.357 38.3931 208.636 38.1019 208.053 37.5195C207.471 36.9372 207.179 36.2163 207.179 35.3565C207.179 34.4969 207.471 33.776 208.053 33.1936C208.636 32.6112 209.357 32.32 210.216 32.32C211.048 32.32 211.755 32.6112 212.338 33.1936C212.921 33.776 213.212 34.4969 213.212 35.3565C213.212 36.2163 212.921 36.9372 212.338 37.5195C211.755 38.1019 211.048 38.3931 210.216 38.3931Z"/>
</mask>
<path d="M4.74189 34.2751H14.5168V38.1019H0V9.19286H4.74189V34.2751ZM20.895 12.1462C20.0353 12.1462 19.3143 11.8551 18.7321 11.2727C18.1497 10.6903 17.8585 9.96932 17.8585 9.10972C17.8585 8.25013 18.1497 7.52914 18.7321 6.94677C19.3143 6.36439 20.0353 6.07324 20.895 6.07324C21.7269 6.07324 22.434 6.36439 23.0163 6.94677C23.5987 7.52914 23.8899 8.25013 23.8899 9.10972C23.8899 9.96932 23.5987 10.6903 23.0163 11.2727C22.434 11.8551 21.7269 12.1462 20.895 12.1462ZM23.2244 15.1826V38.1019H18.4824V15.1826H23.2244ZM38.3099 33.8591L44.7987 15.1826H49.8318L41.0968 38.1019H35.4398L26.7463 15.1826H31.821L38.3099 33.8591ZM74.4221 26.0807C74.4221 26.9404 74.3666 27.7169 74.2557 28.4101H56.7438C56.8826 30.2403 57.5619 31.71 58.782 32.8193C60.0022 33.9284 61.4997 34.4831 63.2743 34.4831C65.8256 34.4831 67.6281 33.4155 68.6819 31.2802H73.7981C73.1049 33.3877 71.8432 35.1208 70.0129 36.4796C68.2104 37.8107 65.9642 38.4762 63.2743 38.4762C61.0837 38.4762 59.1148 37.9909 57.3679 37.0204C55.6485 36.0221 54.2897 34.6355 53.2915 32.8609C52.3209 31.0583 51.8357 28.9786 51.8357 26.6214C51.8357 24.2644 52.307 22.1984 53.2499 20.4237C54.2204 18.6213 55.5654 17.2348 57.2846 16.2641C59.0317 15.2936 61.0282 14.8083 63.2743 14.8083C65.4374 14.8083 67.3647 15.2797 69.0562 16.2226C70.7477 17.1653 72.0649 18.4965 73.0078 20.2157C73.9507 21.9074 74.4221 23.8623 74.4221 26.0807ZM69.4722 24.5833C69.4444 22.8363 68.8205 21.4359 67.6004 20.3821C66.3802 19.3284 64.8689 18.8015 63.0664 18.8015C61.4304 18.8015 60.0299 19.3284 58.8653 20.3821C57.7005 21.4081 57.0074 22.8086 56.7855 24.5833H69.4722ZM87.4077 38.4762C85.6052 38.4762 83.983 38.1573 82.541 37.5195C81.1267 36.854 80.0036 35.9666 79.1717 34.8574C78.3398 33.7205 77.8961 32.4588 77.8407 31.0723H82.7489C82.8321 32.0428 83.2897 32.8609 84.1216 33.5264C84.9812 34.1641 86.0489 34.4831 87.3244 34.4831C88.6556 34.4831 89.6816 34.2334 90.4026 33.7343C91.1512 33.2074 91.5257 32.5419 91.5257 31.7378C91.5257 30.878 91.1097 30.2403 90.2778 29.8244C89.4735 29.4084 88.1841 28.9508 86.4093 28.4517C84.69 27.9803 83.2897 27.5227 82.2082 27.079C81.1267 26.6354 80.1839 25.9559 79.3797 25.0409C78.6033 24.1258 78.215 22.9195 78.215 21.4221C78.215 20.2019 78.5755 19.0927 79.2965 18.0944C80.0174 17.0684 81.0436 16.2641 82.3746 15.6819C83.7335 15.0995 85.2862 14.8083 87.0334 14.8083C89.64 14.8083 91.7336 15.4738 93.3142 16.8049C94.9226 18.1082 95.7823 19.8968 95.8932 22.1707H91.1512C91.0681 21.1447 90.6521 20.3266 89.9035 19.7166C89.1547 19.1066 88.1425 18.8015 86.867 18.8015C85.6191 18.8015 84.6624 19.0372 83.9968 19.5087C83.3313 19.98 82.9985 20.604 82.9985 21.3805C82.9985 21.9905 83.2204 22.5036 83.664 22.9195C84.1078 23.3354 84.6485 23.6682 85.2862 23.9177C85.9241 24.1396 86.867 24.4308 88.1148 24.7913C89.7786 25.2349 91.1374 25.6925 92.1912 26.164C93.2727 26.6076 94.2016 27.2731 94.978 28.1605C95.7545 29.0479 96.1566 30.2265 96.1843 31.6961C96.1843 32.9995 95.8238 34.1641 95.1028 35.1901C94.3818 36.2163 93.3558 37.0204 92.0248 37.6028C90.7214 38.185 89.1824 38.4762 87.4077 38.4762ZM106.05 18.552C106.854 17.4982 107.95 16.6108 109.336 15.8898C110.723 15.1688 112.289 14.8083 114.036 14.8083C116.033 14.8083 117.849 15.3074 119.485 16.3057C121.149 17.2763 122.453 18.649 123.395 20.4237C124.338 22.1984 124.81 24.2367 124.81 26.5383C124.81 28.8399 124.338 30.9058 123.395 32.736C122.453 34.5386 121.149 35.9527 119.485 36.9788C117.849 37.9771 116.033 38.4762 114.036 38.4762C112.289 38.4762 110.736 38.1295 109.378 37.4364C108.019 36.7154 106.91 35.828 106.05 34.7742V48.9999H101.308V15.1826H106.05V18.552ZM119.985 26.5383C119.985 24.9577 119.652 23.5989 118.986 22.4619C118.348 21.2972 117.489 20.4237 116.407 19.8414C115.353 19.2313 114.217 18.9263 112.996 18.9263C111.804 18.9263 110.667 19.2313 109.586 19.8414C108.532 20.4514 107.672 21.3388 107.007 22.5036C106.369 23.6682 106.05 25.0409 106.05 26.6214C106.05 28.2021 106.369 29.5886 107.007 30.7811C107.672 31.9457 108.532 32.8331 109.586 33.4431C110.667 34.0532 111.804 34.3583 112.996 34.3583C114.217 34.3583 115.353 34.0532 116.407 33.4431C117.489 32.8054 118.348 31.8902 118.986 30.6978C119.652 29.5054 119.985 28.1189 119.985 26.5383ZM127.918 26.5383C127.918 24.2367 128.39 22.1984 129.332 20.4237C130.303 18.649 131.606 17.2763 133.242 16.3057C134.907 15.3074 136.737 14.8083 138.734 14.8083C140.536 14.8083 142.102 15.1688 143.433 15.8898C144.793 16.5831 145.874 17.4565 146.678 18.5103V15.1826H151.461V38.1019H146.678V34.691C145.874 35.7725 144.778 36.6737 143.392 37.3947C142.005 38.1157 140.424 38.4762 138.65 38.4762C136.681 38.4762 134.879 37.9771 133.242 36.9788C131.606 35.9527 130.303 34.5386 129.332 32.736C128.39 30.9058 127.918 28.8399 127.918 26.5383ZM146.678 26.6214C146.678 25.0409 146.345 23.6682 145.68 22.5036C145.042 21.3388 144.196 20.4514 143.142 19.8414C142.088 19.2313 140.951 18.9263 139.731 18.9263C138.511 18.9263 137.374 19.2313 136.321 19.8414C135.267 20.4237 134.408 21.2972 133.741 22.4619C133.104 23.5989 132.785 24.9577 132.785 26.5383C132.785 28.1189 133.104 29.5054 133.741 30.6978C134.408 31.8902 135.267 32.8054 136.321 33.4431C137.402 34.0532 138.539 34.3583 139.731 34.3583C140.951 34.3583 142.088 34.0532 143.142 33.4431C144.196 32.8331 145.042 31.9457 145.68 30.7811C146.345 29.5886 146.678 28.2021 146.678 26.6214ZM156.109 26.6214C156.109 24.2644 156.58 22.1984 157.523 20.4237C158.494 18.6213 159.824 17.2348 161.517 16.2641C163.209 15.2936 165.149 14.8083 167.34 14.8083C170.112 14.8083 172.4 15.4738 174.203 16.8049C176.033 18.1082 177.268 19.98 177.905 22.4203H172.789C172.373 21.2833 171.707 20.3959 170.792 19.7582C169.877 19.1204 168.726 18.8015 167.34 18.8015C165.398 18.8015 163.846 19.4947 162.68 20.8813C161.544 22.24 160.975 24.1535 160.975 26.6214C160.975 29.0895 161.544 31.0168 162.68 32.4033C163.846 33.7898 165.398 34.4831 167.34 34.4831C170.085 34.4831 171.902 33.2767 172.789 30.8642H177.905C177.24 33.1936 175.992 35.0515 174.162 36.438C172.331 37.7968 170.058 38.4762 167.34 38.4762C165.149 38.4762 163.209 37.9909 161.517 37.0204C159.824 36.0221 158.494 34.6355 157.523 32.8609C156.58 31.0583 156.109 28.9786 156.109 26.6214ZM203.637 26.0807C203.637 26.9404 203.581 27.7169 203.471 28.4101H185.958C186.097 30.2403 186.776 31.71 187.996 32.8193C189.217 33.9284 190.714 34.4831 192.488 34.4831C195.04 34.4831 196.842 33.4155 197.896 31.2802H203.013C202.319 33.3877 201.058 35.1208 199.227 36.4796C197.425 37.8107 195.179 38.4762 192.488 38.4762C190.299 38.4762 188.33 37.9909 186.582 37.0204C184.863 36.0221 183.504 34.6355 182.506 32.8609C181.535 31.0583 181.05 28.9786 181.05 26.6214C181.05 24.2644 181.522 22.1984 182.465 20.4237C183.435 18.6213 184.78 17.2348 186.5 16.2641C188.246 15.2936 190.243 14.8083 192.488 14.8083C194.651 14.8083 196.579 15.2797 198.271 16.2226C199.963 17.1653 201.28 18.4965 202.223 20.2157C203.165 21.9074 203.637 23.8623 203.637 26.0807ZM198.687 24.5833C198.659 22.8363 198.035 21.4359 196.814 20.3821C195.594 19.3284 194.083 18.8015 192.281 18.8015C190.645 18.8015 189.244 19.3284 188.08 20.3821C186.915 21.4081 186.222 22.8086 185.999 24.5833H198.687ZM210.216 38.3931C209.357 38.3931 208.636 38.1019 208.053 37.5195C207.471 36.9372 207.179 36.2163 207.179 35.3565C207.179 34.4969 207.471 33.776 208.053 33.1936C208.636 32.6112 209.357 32.32 210.216 32.32C211.048 32.32 211.755 32.6112 212.338 33.1936C212.921 33.776 213.212 34.4969 213.212 35.3565C213.212 36.2163 212.921 36.9372 212.338 37.5195C211.755 38.1019 211.048 38.3931 210.216 38.3931Z" fill="white" stroke="white" stroke-width="2" mask="url(#path-3-inside-1_1_530)"/>
</svg>
